<svg xmlns="http://www.w3.org/2000/svg" xmlns:xlink="http://www.w3.org/1999/xlink" width="360" height="680" viewBox="0 0 360 680">
  <defs>
    <linearGradient id="linear-gradient" x1="0.826" y1="0.207" x2="0.118" y2="0.916" gradientUnits="objectBoundingBox">
      <stop offset="0" stop-color="#fff"/>
      <stop offset="1" stop-color="#ff6400"/>
    </linearGradient>
    <linearGradient id="linear-gradient-2" x1="0.651" y1="0.05" x2="0.38" y2="0.65" gradientUnits="objectBoundingBox">
      <stop offset="0" stop-color="#ff6400"/>
      <stop offset="1" stop-color="#fff"/>
    </linearGradient>
    <clipPath id="clip-Custom_Size_23">
      <rect width="360" height="680"/>
    </clipPath>
  </defs>
  <g id="Custom_Size_23" data-name="Custom Size – 23" clip-path="url(#clip-Custom_Size_23)">
    <rect width="360" height="680" fill="#fff"/>
    <g id="Group_10" data-name="Group 10">
      <rect id="Rectangle_1" data-name="Rectangle 1" width="360" height="640" fill="#fff"/>
      <circle id="Ellipse_1" data-name="Ellipse 1" cx="62.5" cy="62.5" r="62.5" transform="translate(281 -39)" fill="url(#linear-gradient)"/>
      <circle id="Ellipse_3" data-name="Ellipse 3" cx="183" cy="183" r="183" transform="translate(-95 551)" fill="url(#linear-gradient-2)"/>
      <g id="Ellipse_2" data-name="Ellipse 2" transform="translate(271 -49)" fill="none" stroke="#ff6400" stroke-width="1">
        <circle cx="72.5" cy="72.5" r="72.5" stroke="none"/>
        <circle cx="72.5" cy="72.5" r="72" fill="none"/>
      </g>
      <g id="Ellipse_4" data-name="Ellipse 4" transform="translate(-105 541)" fill="none" stroke="#ff6400" stroke-width="1">
        <circle cx="193" cy="193" r="193" stroke="none"/>
        <circle cx="193" cy="193" r="192.5" fill="none"/>
      </g>
      <circle id="Ellipse_5" data-name="Ellipse 5" cx="7.5" cy="7.5" r="7.5" transform="translate(303 113)" fill="#ff6400"/>
      <g id="Ellipse_8" data-name="Ellipse 8" transform="translate(129 498)" fill="none" stroke="#ff6400" stroke-width="1">
        <circle cx="7.5" cy="7.5" r="7.5" stroke="none"/>
        <circle cx="7.5" cy="7.5" r="7" fill="none"/>
      </g>
      <circle id="Ellipse_6" data-name="Ellipse 6" cx="17.5" cy="17.5" r="17.5" transform="translate(33 473)" fill="#ff6400"/>
      <g id="Ellipse_7" data-name="Ellipse 7" transform="translate(173 24)" fill="none" stroke="#ff6400" stroke-width="1">
        <circle cx="17.5" cy="17.5" r="17.5" stroke="none"/>
        <circle cx="17.5" cy="17.5" r="17" fill="none"/>
      </g>
    </g>
  </g>
</svg>
